<?xml version="1.0" encoding="utf-8"?>
<!-- Generator: Adobe Illustrator 19.2.1, SVG Export Plug-In . SVG Version: 6.00 Build 0)  -->
<svg version="1.1" id="レイヤー_1" xmlns="http://www.w3.org/2000/svg" xmlns:xlink="http://www.w3.org/1999/xlink" x="0px"
	 y="0px" viewBox="0 0 512 512" style="enable-background:new 0 0 512 512;" xml:space="preserve">
<style type="text/css">
	.st0{fill:#FFFFFF;}
</style>
<g>
	<path class="st0" d="M451.7,280.3l-18.2,12.6l-1.4-0.8c0,0-0.1,0-0.1-0.1l-176.3-99L79.3,292c0,0-0.1,0-0.1,0.1l-1.4,0.8l-1.4-0.9
		c0,0,0,0,0,0l-16.5-11.5c-0.5,2.3-1,4.6-1.4,7c-2.7,15.7-2.3,33.1,1,52.1c3.2,19,8.7,35.5,16.3,49.6c3,5.4,6.4,10.5,9.9,15.2
		c0.8,1,1.7,2,2.5,3c11.1,7.1,22.7,11.7,35,13.8c5.8,7.7,12.2,15.1,19.4,22.1c32,31.3,69.8,46.9,113.2,46.9s81.2-15.6,113.4-46.9
		c7.2-7,13.6-14.4,19.4-22.1c12.2-2.1,23.8-6.7,34.9-13.8c0.8-1,1.7-2,2.5-3c3.6-4.7,6.9-9.8,9.9-15.2c7.6-14.1,13.1-30.6,16.3-49.6
		c3.3-19,3.6-36.3,1-52.1C452.7,285,452.2,282.7,451.7,280.3z M215.2,336.4c0,0.9,0,1.9,0,2.9c0,12.8-1.4,24.3-4.1,34.4
		c-9.4,3.2-18.8,4.8-28.3,4.8c-9.6,0-19.2-1.6-29-4.8c-1-2.5-1.9-5-2.8-7.6c-2.5-8.1-4.3-16.9-5.5-26.5c0-0.1,0-0.2,0-0.3
		c-0.2-1-0.3-2-0.4-2.9c0-0.4,0-0.7,0-1c-0.6-9.8,2.1-18.2,8.1-25.3c6.4-7.5,14.7-11.2,24.7-11.2c9.9,0,18.6,3.7,26,11.2
		c7,7.1,10.8,15.5,11.3,25.3C215.2,335.7,215.2,336,215.2,336.4z M275.3,442.3c-5.3,5.3-11.8,8-19.5,8c-7.6,0-14.2-2.7-19.6-8
		c-0.9-1-1.8-2-2.6-3c14.4,6.1,29.2,6.1,44.5,0C277.2,440.2,276.3,441.2,275.3,442.3z M366.6,335.4c0,0.3,0,0.6,0,1
		c-0.1,0.9-0.2,1.9-0.4,2.9c-1.6,12.8-4.3,24.3-8.3,34.4c-9.8,3.2-19.4,4.8-29,4.8c-9.5,0-18.9-1.6-28.3-4.8c-0.7-2.5-1.3-5-1.8-7.6
		c-1.6-8.1-2.3-16.9-2.3-26.5c0-0.1,0-0.2,0-0.3c0-1,0-2,0-2.9c0-0.4,0-0.7,0-1c0.6-9.8,4.3-18.2,11.3-25.3c7.4-7.5,16-11.2,26-11.2
		s18.1,3.7,24.6,11.2C364.4,317.2,367.2,325.6,366.6,335.4z"/>
	<g>
		<polygon class="st0" points="7.8,213.2 17.3,244.5 74,283.7 66.8,250.6 		"/>
		<polygon class="st0" points="156.3,131.2 182.7,118.7 50,50.5 57.7,75.9 		"/>
		<polygon class="st0" points="253.1,188.4 253.1,157.5 72.2,250.4 79.9,285.6 		"/>
		<path class="st0" d="M255.8,150.1l1.1,0.7c0,0,0,0,0.1,0l185.2,95l25.7-16.1l35.1-22.3l-148.7-70.7c0,0,0,0,0,0l0,0l-4.6-2.2l0,0
			L317,118.9l142.6-73.3l-59.9-24.3L255.8,89.7L111.9,21.3L52,45.6l142.7,73.3l-186,88.5l60.7,38.5l183.8-94.3L255.8,150.1z
			 M439.8,206.3c1-1,2.6-1.5,4.8-1.5c2.2,0,4.4,0.5,6.5,1.5c2,1,3.4,2.1,4.1,3.5c0.7,1.3,0.6,2.5-0.4,3.5c-1.1,1-2.7,1.5-4.9,1.5
			c-2.2,0-4.4-0.5-6.4-1.5c-2.1-1-3.6-2.1-4.3-3.5C438.6,208.4,438.7,207.2,439.8,206.3z M401.4,40.9c0.6-0.6,1.6-0.9,2.9-0.9
			c1.3,0,2.7,0.3,4,0.9c1.2,0.5,2,1.2,2.4,2.1c0.4,0.8,0.4,1.5-0.1,2c-0.7,0.6-1.7,0.9-3.1,0.9c-1.3,0-2.6-0.3-3.9-0.9
			c-1.2-0.5-2.1-1.2-2.5-2C400.7,42.1,400.8,41.4,401.4,40.9z M110.1,43c-0.4,0.8-1.3,1.5-2.5,2c-1.2,0.6-2.5,0.9-3.9,0.9
			s-2.4-0.3-3.1-0.9c-0.5-0.5-0.6-1.2-0.1-2c0.4-0.9,1.2-1.6,2.4-2.1c1.3-0.6,2.7-0.9,4-0.9c1.3,0,2.3,0.3,2.9,0.9
			C110.5,41.4,110.6,42.1,110.1,43z M72,209.7c-0.7,1.3-2.1,2.5-4.3,3.5c-2,1-4.2,1.5-6.4,1.5c-2.2,0-3.9-0.5-4.9-1.5
			c-1-1-1.1-2.1-0.4-3.5c0.7-1.3,2.1-2.5,4.1-3.5c2.1-1,4.3-1.5,6.5-1.5c2.2,0,3.8,0.5,4.8,1.5C72.5,207.2,72.7,208.4,72,209.7z"/>
		<polygon class="st0" points="439.3,250.4 258.4,157.5 258.4,188.4 431.6,285.6 		"/>
		<polygon class="st0" points="503.8,213.2 470.7,234.2 444.7,250.6 437.5,283.7 494.2,244.5 		"/>
		<polygon class="st0" points="355.3,131.2 453.7,75.9 461.5,50.6 329,118.7 		"/>
	</g>
</g>
</svg>
